<svg xmlns="http://www.w3.org/2000/svg" version="1.1" viewBox="-5.0 -10.0 110.0 135.0" width="1024" height="1024">
 <path fill="#ffffff" d="m90.105 29.023c1.0039-0.039063 2-0.38281 2.8203-1.0156 1.0234-0.78906 1.7695-2.0078 2.0508-3.3398 0.097657-0.46094-0.13672-0.92578-0.56641-1.1211-1.4453-0.65625-3.0508-0.77734-4.5586-0.39453 0.97266-2.6562 0.14063-5.1406-2.4844-7.2773-0.31641-0.25781-0.75391-0.30078-1.1133-0.10547-0.35938 0.19141-0.56641 0.58203-0.52344 0.98438 0.16797 1.6641-0.035157 2.9492-0.57422 3.9414-0.86328-0.33594-1.8945-0.21875-2.8945-0.10156-0.66406 0.078125-1.3516 0.16016-1.7422 0.058594-1.9727-0.50781-3.6328-0.40625-5.0156 0.26562-0.52344-0.58203-1-1.1719-1.3008-1.8164-0.34766-0.74609-0.40625-1.5312-0.16016-2.1016 0.17188-0.39062 0.074219-0.84766-0.23828-1.1406-0.3125-0.28906-0.77734-0.35156-1.1562-0.14844-1.3398 0.71484-2.3125 2.0039-2.8203 3.7305-0.29297 0.99609-0.31641 2.0547-0.09375 3.0586-1.957-0.39453-4.1406-0.27734-6.543 0.36719-0.28516 0.078124-0.51953 0.27344-0.64844 0.54297-0.125 0.26562-0.12891 0.57422-0.007813 0.84375 0.19922 0.44141 0.41797 0.84375 0.64844 1.2305-2.5781 0.22656-5.1055 0.42578-7.6484 0.58594-9.6719 0.57031-17.867 0.41406-28.285-0.53125l-0.125-0.011718c-0.42578-0.039063-0.86328-0.074219-1.3164-0.12109-1.7891-0.16016-3.3281-0.10156-4.7109 0.17969-1.4844 0.30859-3.0312 0.88672-4.4141 1.8867-0.12891-0.058594-0.26562-0.09375-0.41406-0.09375h-0.67969c-4.1797 0-7.582 3.4023-7.582 7.5859v16.633c-0.074218 0.015625-0.15234 0.023438-0.22656 0.046875-1.1914 0.36719-1.9766 1.7461-2.1875 2.1602-0.55469 1.0781-0.72656 2.3281-0.48828 3.5156 0.078125 0.39844 0.20312 0.77344 0.32031 1.1367 0.10156 0.31641 0.20703 0.63281 0.27734 0.95703 0.089844 0.40625 0.17969 1.1641-0.20312 1.6836-0.12891 0.17188-0.13281 0.40625-0.011719 0.58203 0.097657 0.13672 0.25 0.21875 0.41406 0.21875 0.042968 0 0.089844-0.007813 0.13281-0.019532 1.5391-0.42578 2.9023-1.582 4.0508-3.4375 0.54297-0.875 0.87109-1.6289 1.0312-2.3711 0.32031-1.4688-0.10547-2.8242-1.1055-3.7305v-17.379c0-2.7539 2.0078-5.0391 4.6328-5.4883-1.7031 2.2852-2.7227 5.7656-2.2266 11.039 1 8.4453 1.8242 17.734-1.0664 21.098-0.23047 0.26953-0.30469 0.64453-0.1875 0.98047 1.1094 3.2539 1.3125 9.5938 1.4336 16.355 0 0.042969 0.003906 0.085938 0.011719 0.125l0.64453 4.4688c0.070313 0.49609 0.49609 0.86328 0.99609 0.86328h7.1758c0.30078 0 0.58594-0.13281 0.77734-0.36719 0.19141-0.23047 0.26953-0.53906 0.21094-0.83203-0.39844-2.0273-1.1602-3.4297-2.5938-4.7305v-12.207c1.7461-1.4844 3.2852-2.9453 4.6641-4.3945 0.44141 0.28516 0.90234 0.54297 1.3711 0.77344l-0.36719 1.1875c-0.16406 0.53125 0.13281 1.0938 0.66406 1.2578 0.097656 0.03125 0.19922 0.046875 0.29688 0.046875 0.42969 0 0.82812-0.27734 0.96094-0.71094l0.31641-1.0273c1.2227 0.39062 2.5 0.60937 3.7812 0.64062l0.082032 0.92188c0.046875 0.52344 0.48438 0.91406 1 0.91406 0.03125 0 0.0625 0 0.09375-0.003906 0.55469-0.050782 0.96094-0.53906 0.91016-1.0938l-0.078125-0.84766c1.0195-0.12891 2.0273-0.37109 2.9922-0.72266l0.52344 0.875c0.1875 0.3125 0.51953 0.48828 0.86328 0.48828 0.17578 0 0.35547-0.046874 0.51562-0.14453 0.47656-0.28516 0.63281-0.90234 0.34375-1.3789l-0.40234-0.67188c0.46875-0.25391 0.92578-0.52734 1.3594-0.83594 0.039062-0.027343 0.0625-0.070312 0.097656-0.10156 1.5586 0.40234 3.168 0.61719 4.7734 0.61719h11.18l0.48828 5.5977c0.011719 0.11719 0.042969 0.23438 0.09375 0.34375l0.74219 1.5703v8.4219c0 0.26562 0.10547 0.52344 0.29297 0.71094l0.63672 0.63672v4.0508c0 0.55469 0.44922 1.0039 1.0039 1.0039h6.5078c0.28516 0 0.55859-0.12109 0.75-0.33203 0.19141-0.21484 0.28125-0.49609 0.25-0.78125-0.21875-2.0195-1.0195-3.2617-2.1367-4.707v-8.5391l0.82812-1.6523c0.050781-0.10156 0.082031-0.21094 0.097656-0.32031l0.097656-0.76172 0.50391 2.2422v8.4453c0 0.23047 0.078125 0.44922 0.22266 0.62891l0.57812 0.71875 0.61719 4.1992c0.070312 0.49219 0.49609 0.85938 0.99609 0.85938h6.2305c0.30859 0 0.59766-0.14062 0.78906-0.38281 0.19141-0.24219 0.26172-0.55859 0.1875-0.85547-0.51172-2.1562-1.4727-3.4375-2.8516-4.6875v-9.1055l0.92578-2.0352c0.054688-0.11719 0.082031-0.24609 0.089844-0.375l0.37109-8.9141c0.14453-0.18359 0.29297-0.35547 0.42969-0.55078 1.6406-2.3398 2.6406-5.1953 3.6094-7.9609 0.19141-0.54688 0.37891-1.0859 0.57422-1.6172 0.52344-1.4688 1.1562-3.082 1.9414-4.2188 0.011719 0.003906 0.023438 0.007812 0.03125 0.011719 0.125 0.24219 0.26953 0.46875 0.46094 0.67188 0.55859 0.58594 1.3203 0.91016 2.1445 0.91016h7.1719c1.6523 0 3.0703-1.3438 3.1562-2.9961l0.16016-3.0625c0.042969-0.82422-0.23828-1.6055-0.79688-2.1914-0.11328-0.11719-0.23828-0.21484-0.36328-0.3125-0.82031-1.0352-1.918-3.5-2.7148-6.082l0.21875-1.6289zm2.6289-3.9414c-0.24609 0.53125-0.60156 0.99609-1.0352 1.3281-0.55859 0.42969-1.2422 0.63281-1.9141 0.59766-0.25781-0.43359-0.49219-0.89844-0.71094-1.3906 1.1094-0.63672 2.4375-0.83203 3.6602-0.53516zm-5.0117-5.8594c0.68359 1.1641 0.67969 2.3867 0.027344 3.7461-0.28125-0.42969-0.57812-0.80469-0.89453-1.1289 0.44531-0.76172 0.73438-1.6289 0.86719-2.6172zm-15.602 3.957c-0.53125-0.94531-0.66406-2.1328-0.35938-3.1719 0.078125-0.26172 0.18359-0.55469 0.32422-0.84766 0.078124 0.26562 0.17578 0.53125 0.29687 0.79297 0.38281 0.82031 0.91406 1.5078 1.4961 2.1641-0.41016 0.42969-0.79688 0.91406-1.1367 1.4961-0.18359-0.10547-0.37891-0.19141-0.57031-0.28516-0.019531-0.050781-0.019531-0.10156-0.046875-0.14844zm-40.363 38.867c-2.0703-0.019531-4.125-0.60938-5.8984-1.6758 1.125-1.2891 2.1055-2.5703 2.9453-3.8477l7.4141 3.6133c0.375 0.18359 0.75781 0.34766 1.1445 0.50781-1.7188 0.92188-3.6758 1.4219-5.6055 1.4023zm34.543-0.03125c2.1797-0.042969 4.0664-0.66016 5.6836-1.8672l-0.27344 6.5352-0.93359 2.0547c-0.058594 0.12891-0.089844 0.27344-0.089844 0.41406v9.7773h-1.9844l-0.019531-0.14453c-0.027344-0.17578-0.097656-0.34375-0.21094-0.48438l-0.52734-0.65625v-8.2031c0-0.074218-0.007812-0.14844-0.023437-0.21875l-1.6172-7.2109zm25.293-19.82c-0.03125 0.58984-0.55859 1.0898-1.1484 1.0898h-7.1719c-0.26563 0-0.51172-0.10156-0.68359-0.28516-0.17578-0.18359-0.26172-0.43359-0.25-0.69922l0.16016-3.0625c0.03125-0.59375 0.55859-1.0938 1.1484-1.0938h7.1719c0.26953 0 0.51172 0.10156 0.68359 0.28516 0.17578 0.18359 0.26172 0.43359 0.25 0.70312zm-1.6992-6.0625h-6.25c-1.6523 0-3.0703 1.3438-3.1562 3l-0.11328 2.1406c-2.3789-1.3125-4.5156-2.7773-6.3398-4.3828-0.54297-1.7109-0.75-3.4688-0.61719-5.2227 0.042969-0.55469-0.37109-1.0352-0.92578-1.0781-0.55469-0.039063-1.0352 0.37109-1.0781 0.92578-0.16016 2.1133 0.10547 4.2227 0.79688 6.2695 0.054687 0.16406 0.15234 0.3125 0.28125 0.42578 1.8477 1.6562 3.9961 3.1719 6.3828 4.5352-0.85547 1.293-1.5078 2.9023-2.0781 4.4961-0.003906 0.011718-0.007813 0.027343-0.015625 0.039062-0.12109-0.042969-0.24609-0.085938-0.36328-0.13672-1.1055-0.48047-2.1523-1.1289-3.0938-1.8945-1.0469-0.85938-1.9258-1.8867-2.6758-3.0234-0.42969-0.6875-0.80078-1.4141-1.3125-2.0391-0.51172-0.63672-1.2109-1.1562-2.0078-1.2695-1.4336-0.18359-2.6758 0.97266-3.5039 2.1523-0.59375 0.83984-1.1172 1.793-1.168 2.8164-0.070312 1.6211 1.0352 3.0352 2.1719 4.1914 1.1484 1.1484 2.4297 2.2852 2.9023 3.832 0.27734 0.89062 0.25781 1.8867 0.73828 2.6758 0.42969 0.71875 1.1992 1.168 1.9688 1.4961 0.68359 0.28906 1.3945 0.50781 2.1172 0.65625-1.6289 2.125-3.625 3.1836-6.1875 3.2656l0.44531-3.4688c0.070312-0.55078-0.31641-1.0547-0.86719-1.125-0.54687-0.0625-1.0547 0.31641-1.125 0.86719l-1.4648 11.371-0.85547 1.7109c-0.070312 0.14062-0.10547 0.29297-0.10547 0.44922v9.1211h-2.3555c0-0.26563-0.10547-0.52344-0.29297-0.71094l-0.63672-0.63672v-8.2344c0-0.14844-0.03125-0.29688-0.097656-0.42969l-0.76172-1.6094-1.2852-14.711c-0.046875-0.55469-0.53516-0.96484-1.0898-0.91406-0.55469 0.046875-0.96094 0.53516-0.91406 1.0898l0.63672 7.2852h-11.004c-2.5781 0-5.1719-0.59766-7.4883-1.7266l-7.2422-3.5312c0.46484-0.82422 0.89062-1.6445 1.2383-2.4688 0.21875-0.51172-0.023437-1.1016-0.53125-1.3203-0.51172-0.21484-1.1016 0.023437-1.3164 0.53516-1.8594 4.3789-5.4805 8.7891-11.078 13.488-0.22656 0.19141-0.35938 0.47266-0.35938 0.76953v13.129h-3.1836l-0.011718-0.082032c-0.12109-6.8242-0.31641-12.785-1.3711-16.379 1.3164-1.8281 1.9297-4.5547 2.0742-8.1133 2.8867-0.79688 5.6328-2.082 8.082-3.8164 0.87109-0.625 1.7422-1.3516 2.0898-2.3672 0.48047-1.3516-0.16406-2.9414-1.3203-3.7812-0.58594-0.42969-1.3203-0.72656-1.6602-1.3633-0.41016-0.76953-0.082031-1.7109 0.17578-2.543 0.31641-1.0469 0.53125-2.1719 0.21484-3.2188-0.33984-1.1562-1.2695-2.0586-2.3047-2.6758-1.6875-0.99609-3.625-1.3477-5.6016-1.4883 1.0156-3.0195 3.1758-4.8555 6.5195-5.5508 1.1836-0.24219 2.5352-0.28906 4.1094-0.14844 0.38281 0.039062 0.75781 0.070312 1.1289 0.10547-0.26953 0.66016-0.50781 1.3359-0.63672 2.043-0.21484 1.2305-0.050782 2.418 0.53125 3.3711 0.39844 0.66797 1.0039 1.2188 1.8242 1.5898 1.6211 0.75 3.6289 0.93359 4.8672 2.3477 1.0352 1.168 1.168 2.8477 1.168 4.3984 0 1.5469-0.050781 3.1875 0.71875 4.5312 1.0547 1.8438 3.3203 2.6133 5.4102 3.1055 1.918 0.44922 4.1797 0.72656 5.6172-0.58594 2.0078-1.8555 0.96484-5.4844 2.8281-7.4805 1.5664-1.6602 4.5898-1.4961 5.9023-3.3633 0.75-1.0547 0.69531-2.4688 0.39844-3.7188-0.28516-1.25-0.78906-2.4609-0.85938-3.7422-0.035156-0.64062 0.085937-1.3008 0.34375-1.8867 0.26562-0.015625 0.52344-0.023438 0.79297-0.039063 2.9922-0.1875 5.9414-0.41797 9-0.70312 1.8945 1.8359 4.4414 2.4727 7.6133 1.8789 0.54688-0.10156 0.90625-0.625 0.80469-1.1719-0.10156-0.54688-0.625-0.91016-1.1719-0.80469-3.2031 0.59375-5.4414-0.28125-6.957-2.7578 3.0586-0.58984 5.5469-0.14844 7.5859 1.3477 0.24609 0.17969 0.55859 0.24219 0.85156 0.16016 0.29297-0.078125 0.53516-0.28125 0.66016-0.55859 1.2617-2.8047 2.9922-3.6367 5.9766-2.875 0.75 0.19141 1.625 0.089844 2.4766-0.007812 0.72656-0.085938 1.5547-0.18359 1.9453-0.019532 0.79688 0.32422 1.4883 1.0977 2.1094 2.3633 0.17969 0.36719 0.34375 0.74219 0.50781 1.1211 0.30859 0.70703 0.63281 1.4297 1.0547 2.1211-0.078125-0.011719-0.16016-0.023437-0.24219-0.023437-0.80078 0-1.4453 0.64844-1.4453 1.4453 0 0.80078 0.64844 1.4453 1.4453 1.4453 0.007813 0 0.019532-0.003907 0.027344-0.003907 0.46484 1.5469 1.1875 3.5078 1.9922 5.0938zm-11.012-6.4023c0 0.80078-0.64844 1.4453-1.4492 1.4453-0.80078 0-1.4453-0.64844-1.4453-1.4453 0-0.80078 0.64844-1.4453 1.4453-1.4453 0.80078 0 1.4492 0.64844 1.4492 1.4453zm-42.703 53.434c0.074218 0.30078 0.003906 0.61719-0.1875 0.85938-0.19141 0.24219-0.48047 0.38672-0.78906 0.38672h-6.9805c-0.45703 0-0.85938-0.30859-0.97266-0.75391l-0.88672-3.4297-0.48828-0.69141c-0.015625-0.023437-0.035156-0.050781-0.046875-0.074218-0.26172-0.38281-0.46484-0.80859-0.60547-1.2695l-3.5469-11.809c-0.16016-0.53125 0.14062-1.0938 0.67188-1.2539 0.53125-0.15625 1.0938 0.14062 1.2539 0.67188l3.5469 11.805c0.082031 0.27344 0.20312 0.52344 0.35937 0.74219 0.015626 0.023438 0.03125 0.046875 0.046876 0.070313l0.35937 0.51172h3.9336c-0.17969-0.18359-0.36719-0.36719-0.57031-0.55078-0.14453-0.125-0.24609-0.29297-0.29688-0.47656l-2.6016-9.1211c-0.15234-0.53516 0.15625-1.0898 0.69141-1.2422 0.53516-0.14844 1.0898 0.15625 1.2422 0.69141l2.5234 8.8477c0.42187 0.39453 0.79687 0.79688 1.1367 1.2266 1.0273 1.3086 1.707 2.8047 2.207 4.8555zm49.812-43.09c0.42578 0.35938 0.47656 0.99219 0.11719 1.418-0.19922 0.23437-0.48438 0.35547-0.76953 0.35547-0.23047 0-0.46094-0.078125-0.64844-0.23828l-0.66406-0.5625c-0.42578-0.35938-0.47656-0.99219-0.11719-1.418 0.35938-0.42578 0.99219-0.47656 1.418-0.11719zm4.4688-0.44141c0.35937 0.42578 0.30469 1.0586-0.11719 1.418l-0.66406 0.5625c-0.1875 0.16016-0.41797 0.23828-0.64844 0.23828-0.28516 0-0.57031-0.12109-0.76953-0.35547-0.35938-0.42578-0.30469-1.0586 0.11719-1.418l0.66406-0.5625c0.42578-0.35938 1.0586-0.30469 1.418 0.11719z"/>
</svg>
