<svg xmlns="http://www.w3.org/2000/svg" version="1.1" viewBox="-5.0 -10.0 110.0 135.0" width="256" height="256">
 <path fill="#ffffff" d="m21.117 91.258h-14.867c-0.86328 0-1.5625 0.69922-1.5625 1.5625 0 0.86328 0.69922 1.5625 1.5625 1.5625h60.938-34.375c-4.2578 0-8.25-1.1367-11.695-3.125zm57.762 0c-3.4453 1.9883-7.4375 3.125-11.695 3.125h26.562c0.86328 0 1.5625-0.69922 1.5625-1.5625 0-0.86328-0.69922-1.5625-1.5625-1.5625zm-46.07-40.625c11.211 0 20.312 9.1016 20.312 20.312 0 11.211-9.1016 20.312-20.312 20.312-11.211 0-20.312-9.1016-20.312-20.312 0-11.211 9.1016-20.312 20.312-20.312zm30.445 0c2.9922 1.7266 5.5664 4.0977 7.5391 6.918 0.49219 0.70703 0.32031 1.6797-0.38672 2.1758-0.70703 0.49219-1.6797 0.32031-2.1758-0.38672-3.6719-5.2578-9.7734-8.707-16.668-8.707h-7.0547c7.0156 4.0547 11.742 11.633 11.742 20.312 0 8.6797-4.7266 16.262-11.742 20.312h7.0547c11.211 0 20.312-9.1016 20.312-20.312 0-0.86328 0.69922-1.5625 1.5625-1.5625s1.5625 0.69922 1.5625 1.5625c0 8.6797-4.7266 16.262-11.742 20.312h3.9297c11.211 0 20.312-9.1016 20.312-20.312 0-11.211-9.1016-20.312-20.312-20.312zm-21.117 9.7852c4.9023 4.3359 6.25 11.672 2.8516 17.559-3.3984 5.8867-10.426 8.3867-16.633 6.3086-0.82031-0.27344-1.7031 0.16797-1.9766 0.98828-0.27344 0.82031 0.16797 1.7031 0.98438 1.9766 7.5898 2.5391 16.18-0.51562 20.332-7.7109 4.1562-7.1953 2.5078-16.16-3.4883-21.461-0.64844-0.57031-1.6328-0.50781-2.207 0.13672-0.57031 0.64453-0.50781 1.6328 0.13672 2.2031zm-18.656 21.055c-4.9023-4.3359-6.25-11.672-2.8516-17.559 3.3984-5.8867 10.426-8.3867 16.633-6.3086 0.82031 0.27344 1.7031-0.16797 1.9766-0.98438 0.27344-0.82031-0.16797-1.707-0.98438-1.9766-7.5898-2.5391-16.18 0.51172-20.332 7.7109-4.1562 7.1953-2.5078 16.164 3.4883 21.461 0.64844 0.57031 1.6328 0.51172 2.207-0.13281 0.57031-0.64844 0.50781-1.6328-0.13672-2.207zm5.7734-17.5c2.9023-1.3828 6.4883-0.87891 8.8906 1.5234 3.0508 3.0508 3.0508 8 0 11.051-3.0469 3.0508-8 3.0508-11.047 0-2.4023-2.4023-2.9141-5.9883-1.5273-8.8945 0.37109-0.77734 0.039063-1.7109-0.73828-2.082-0.77734-0.37109-1.7109-0.039062-2.082 0.73828-1.9414 4.0625-1.2266 9.082 2.1367 12.445 4.2695 4.2695 11.199 4.2695 15.465 0 4.2695-4.2695 4.2695-11.199 0-15.469-3.3633-3.3633-8.3828-4.0742-12.445-2.1367-0.77734 0.37109-1.1094 1.3047-0.73828 2.0859 0.37109 0.77734 1.3047 1.1094 2.0859 0.73828zm20.898-16.465h3.2422l1.7578-6.3555c0.53906-1.9648 2.2617-3.2891 4.1875-3.4258l-2.6992 9.7812h3.2422l2.4727-8.9492c1.5859 1.1016 2.3789 3.1211 1.8359 5.0859l-1.0703 3.8633h3.2422l0.83594-3.0312c1.0039-3.6406-0.74219-7.3945-3.9922-9.0391l7.6836-27.84c0.23047-0.83203-0.25781-1.6953-1.0859-1.9219-0.83203-0.23047-1.6953 0.25781-1.9219 1.0898l-7.6875 27.84c-3.6289-0.25391-7.0547 2.0703-8.0586 5.7109l-1.9844 7.1875z" fill-rule="evenodd"/>
</svg>