<svg xmlns="http://www.w3.org/2000/svg" xmlns:xlink="http://www.w3.org/1999/xlink" width="400" height="119" viewBox="0 0 400 119">
  <defs>
    <polygon id="no-enterprises-a" points="0 .246 87.989 .246 87.989 58.985 0 58.985"/>
    <polygon id="no-enterprises-c" points=".275 .096 45.491 .096 45.491 49.69 .275 49.69"/>
    <polygon id="no-enterprises-e" points=".07 .343 40.892 .343 40.892 57.967 .07 57.967"/>
    <polygon id="no-enterprises-g" points=".426 .577 22.762 .577 22.762 51.183 .426 51.183"/>
    <polygon id="no-enterprises-i" points=".584 .399 12.126 .399 12.126 6.167 .584 6.167"/>
    <polygon id="no-enterprises-k" points=".419 .399 11.987 .399 11.987 6.167 .419 6.167"/>
  </defs>
  <g fill="none" fill-rule="evenodd">
    <ellipse cx="302" cy="112" fill="#EAEEF1" opacity=".5" rx="98" ry="7"/>
    <ellipse cx="51" cy="89" fill="#EAEEF1" opacity=".5" rx="51" ry="5"/>
    <g transform="translate(0 -.527)">
      <polygon fill="#FFF" points="68.482 58.798 66.678 86.745 61.774 86.745 59.324 57.883"/>
      <polygon fill="#9CA6AF" points="61.814 86.745 61.79 88.199 62.406 89.209 67.433 89.28 66.741 86.745"/>
      <polygon fill="#FFF" points="33.589 59.266 32.834 86.746 27.931 86.746 24.123 55.347"/>
      <g transform="translate(0 .28)">
        <path fill="#D8DEE2" d="M29.6136653,64.8652538 L29.6136653,64.8652538 C24.165914,64.8652538 20.8469503,62.2426503 18.3751679,54.3400822 L13.2249606,33.6836562 L46.0710746,40.281242 L40.9541627,55.0652479 C38.9257896,60.1835379 35.0608881,64.8652538 29.6136653,64.8652538"/>
        <polygon fill="#9CA6AF" points="32.898 86.465 27.971 86.465 27.947 87.92 28.562 88.929 33.589 89"/>
        <path fill="#D8DEE2" d="M63.8687005,64.7793609 L63.8687005,64.7793609 C58.4214777,64.7793609 55.1019855,62.157284 52.6307316,54.2541893 L47.4799959,33.5977633 L80.3261098,40.1958757 L75.2091979,54.9798817 C73.1808249,60.097645 69.3164518,64.7793609 63.8687005,64.7793609"/>
        <polygon fill="#FFF" points="20.844 58.985 20.09 86.464 15.186 86.464 11.378 55.065"/>
        <polygon fill="#9CA6AF" points="20.153 86.464 15.225 86.464 15.202 87.919 15.818 88.928 20.844 88.999"/>
        <mask id="no-enterprises-b" fill="#fff">
          <use xlink:href="#no-enterprises-a"/>
        </mask>
        <path fill="#EAEEF1" d="M61.9598736,58.9849343 L34.1181016,58.9849343 C15.2750549,58.9849343 -0.000105699482,43.7638278 -0.000105699482,24.9874609 C-0.000105699482,11.3230645 11.1163088,0.245987574 24.8292311,0.245987574 L52.0035109,0.245987574 C65.7159047,0.245987574 76.9644435,4.92981006 87.9888995,23.7946503 L86.7886819,34.2434609 C86.7886819,47.9078574 75.6722674,58.9849343 61.9598736,58.9849343" mask="url(#no-enterprises-b)"/>
        <polygon fill="#FFF" points="56.091 58.517 54.286 86.464 49.383 86.464 46.932 57.602"/>
        <path fill="#EAEEF1" d="M52.5622912 64.8652538L52.5622912 64.8652538C47.1150684 64.8652538 42.7243119 60.3078219 41.2048819 55.0663012L34.6620839 39.6824669 70.9920528 39.6824669 64.2441979 55.6376917C61.8612031 61.0698515 58.0100425 64.8652538 52.5622912 64.8652538M17.5157782 64.8652538L17.5157782 64.8652538C12.0680269 64.8652538 8.74906321 62.2426503 6.27780933 54.3400822L1.12707358 33.6836562 33.9731876 40.281242 28.8562756 55.0652479C26.8279026 60.1835379 22.963001 64.8652538 17.5157782 64.8652538"/>
        <g transform="translate(56.55 23.698)">
          <mask id="no-enterprises-d" fill="#fff">
            <use xlink:href="#no-enterprises-c"/>
          </mask>
          <path fill="#EAEEF1" d="M29.9631078,49.2412775 L29.9631078,49.2412775 C37.366828,47.5982006 46.5811803,40.9653308 45.3862477,29.8924669 C44.5189834,21.8535024 31.4397295,0.0964254438 31.4397295,0.0964254438 L0.275294301,31.3222598 C0.275294301,31.3222598 9.87650674,41.2491828 13.8772321,44.3615497 C18.2040404,47.7272243 22.5593876,50.8848811 29.9631078,49.2412775" mask="url(#no-enterprises-d)"/>
        </g>
        <path fill="#FFF" d="M73.8260674,55.7094183 C77.8452902,54.7551698 80.4159016,51.1051166 80.4159016,51.1051166 C80.4159016,51.1051166 76.4696114,49.0007142 72.4503886,49.9544361 C68.4311658,50.9086846 65.8605544,54.5592645 65.8605544,54.5592645 C65.8605544,54.5592645 69.8068446,56.6636669 73.8260674,55.7094183"/>
        <polygon fill="#9CA6AF" points="54.35 86.464 49.422 86.464 49.399 87.919 50.014 88.928 55.041 88.999"/>
        <polygon fill="#EAEEF1" points="87.168 53.223 73.381 57.802 76.466 48.936 96.829 52.023"/>
        <path fill="#FFF" d="M92.9345254,84.0269538 C92.5894166,85.319297 87.7705772,88.2573503 86.1475617,86.8617882 C78.2835202,80.0998947 75.9919554,67.7030899 75.9919554,67.7030899 L85.2290332,58.9084154 L96.0880694,62.7448947 L97.6170124,67.4697941 C97.6170124,67.4697941 94.4037482,78.5252793 92.9345254,84.0269538"/>
      </g>
    </g>
    <g transform="translate(215 1)">
      <g transform="translate(113.13 52.931)">
        <mask id="no-enterprises-f" fill="#fff">
          <use xlink:href="#no-enterprises-e"/>
        </mask>
        <path fill="#D8DEE2" d="M32.404518,52.6986067 L40.644617,28.74604 C40.644617,28.74604 34.291465,16.70069 39.1062848,4.78237333 C39.7906028,3.08900667 40.3378113,1.72802333 40.8923979,0.34299 L3.7916629,0.399106667 L0.0700303887,0.554506667 C4.92235548,0.554506667 6.69002332,12.81939 14.4862071,21.83999 C20.4809067,28.7768733 27.6517972,32.1599067 27.6517972,35.8309233 C27.6517972,43.8593067 24.6353873,47.34779 23.4923979,49.4019067 C21.2832742,53.37324 20.2343555,53.04024 19.273359,57.96679 L30.4038254,57.96679 L32.404518,52.6986067 Z" mask="url(#no-enterprises-f)"/>
      </g>
      <path fill="#9CA6AF" d="M134.811265,105.153815 C133.529322,106.893432 132.621816,108.680532 132.403548,110.897448 L143.545081,110.897448 L144.628431,108.025632 L134.811265,105.153815 Z"/>
      <g transform="translate(46.113 59.714)">
        <mask id="no-enterprises-h" fill="#fff">
          <use xlink:href="#no-enterprises-g"/>
        </mask>
        <path fill="#D8DEE2" d="M22.7624587,0.997951667 L0.425900353,0.576768333 L8.35611943,22.287135 L8.35796396,22.2865183 C8.81110177,23.787485 9.82681908,25.039935 11.1579498,25.8052183 L11.1579498,37.6853017 C11.1579498,42.6248017 6.94505936,46.0306517 5.53338445,51.1835183 L16.4240629,51.1835183 L18.0146565,46.028185 L21.1712502,23.8121517 L22.7624587,0.997951667 Z" mask="url(#no-enterprises-h)"/>
      </g>
      <g transform="translate(51.032 104.731)">
        <mask id="no-enterprises-j" fill="#fff">
          <use xlink:href="#no-enterprises-i"/>
        </mask>
        <path fill="#9CA6AF" d="M3.29474841,0.398798333 C2.08597102,2.26729833 0.965115901,4.680315 0.583914488,6.16709833 L11.4745929,6.16709833 L12.1263244,3.70598167 L3.29474841,0.398798333 Z" mask="url(#no-enterprises-j)"/>
      </g>
      <path fill="#EAEEF1" d="M73.1548261,105.742793 L75.7679004,85.5944433 L79.7028827,65.2777433 C79.7028827,65.2777433 84.5521336,65.2068267 91.0214905,65.23396 C113.200649,65.3289267 114.430331,57.9344767 125.864529,57.9344767 C130.717469,57.9344767 130.783257,64.55316 138.037151,72.4279933 C146.82077,81.9622767 157.155017,86.69211 157.155017,90.3637433 C157.155017,98.3908933 157.171003,96.44161 157.155017,98.79296 C157.12366,103.30881 153.286437,106.131293 152.817314,110.89751 L163.94778,110.89751 L165.949088,105.629327 C165.949088,105.629327 167.438233,80.8707767 167.322642,76.55596 C167.181844,71.3253933 163.889985,60.99006 163.94778,55.9031767 C163.989589,52.2586767 166.623568,43.5710767 168.74477,34.60721 C168.74477,34.60721 171.057801,45.6029933 170.011342,55.2556767 C169.94371,55.8772767 172.41537,54.5896767 172.41537,54.5896767 C172.41537,54.5896767 173.88607,34.5042267 173.88607,19.42796 C173.88607,13.53941 162.724247,2.59234333 152.806861,0.240376667 C146.565611,-1.23900667 110.187929,4.60206 91.189342,4.60206 C65.5443244,4.60206 59.4008332,4.50154333 47.9168332,7.71561 C32.5193703,12.0254933 9.01461413,63.3944433 9.01461413,63.3944433 L36.657865,74.8453267 L48.5845505,63.86311 C48.5845505,63.86311 52.9911159,65.3369433 56.0247413,65.18031 C56.4539004,65.15811 56.8996601,65.1846267 57.3540276,65.1864767 L63.496289,82.0017433 L63.4975187,82.0011267 C63.9506565,83.5020933 64.9663739,84.7545433 66.2981194,85.51921 L66.2981194,97.39991 C66.2981194,102.338793 62.0846141,105.74526 60.6735541,110.89751 L71.5642325,110.89751 L73.1548261,105.742793 Z"/>
      <path fill="#9CA6AF" d="M172.608369,52.2583683 C169.702016,53.7007517 167.514411,55.4385183 167.335493,59.427735 C167.155959,63.4169517 168.87444,66.5453017 171.199153,71.8492517 L172.608369,52.2583683 Z"/>
      <g transform="translate(60.254 104.731)">
        <mask id="no-enterprises-l" fill="#fff">
          <use xlink:href="#no-enterprises-k"/>
        </mask>
        <path fill="#9CA6AF" d="M3.12990954,0.398798333 C1.92113216,2.26729833 0.800277032,4.680315 0.419075618,6.16709833 L11.3097541,6.16709833 L11.9873088,3.969915 L3.12990954,0.398798333 Z" mask="url(#no-enterprises-l)"/>
      </g>
      <path fill="#DEE4E7" d="M48.5843046,63.8630483 C50.2203965,64.699865 52.9244671,65.4034817 56.0244954,65.2708983 C56.435824,65.2536317 56.8606792,65.275215 57.2947569,65.2776817 C56.8686721,64.111565 54.8630608,59.2651817 54.2267004,57.6686317 C51.4224106,50.6367817 48.5843046,63.8630483 48.5843046,63.8630483"/>
      <path fill="#9CA6AF" d="M154.929907,105.153815 C153.647964,106.893432 153.02513,108.680532 152.806861,110.897448 L163.94778,110.897448 L164.718176,108.868615 L154.929907,105.153815 Z"/>
      <path fill="#EAEEF1" d="M78.4578297,53.424855 L78.4578297,65.3172717 C78.4578297,65.3172717 100.779632,65.3289883 115.447278,65.3289883 C130.114925,65.3289883 140.387688,56.229455 148.649922,53.424855 L78.4578297,53.424855 Z"/>
      <path fill="#DEE4E7" d="M82.4999173,53.4983617 C85.6356064,57.845245 85.8200587,65.324795 85.8200587,65.324795 C85.8200587,65.324795 81.3329491,65.324795 79.6562777,65.2865617 L82.4999173,53.4983617 Z"/>
      <path fill="#D8DEE2" d="M1.57386996,51.24907 C1.10720565,51.05667 0.575368198,51.33417 0.469615548,51.8256533 C0.0343081272,53.8415367 -0.695508127,58.8513367 1.55173569,63.1069533 C4.44210318,68.57802 11.1604707,70.7308033 11.1604707,70.7308033 C11.1604707,70.7308033 13.193135,64.0128367 10.3027675,58.54177 C8.05490883,54.28677 3.49155901,52.0384033 1.57386996,51.24907"/>
      <path fill="#DEE4E7" d="M36.5081512,74.9130983 L41.3063703,70.5267483 C38.3016424,61.4857983 33.8440452,62.6679483 33.8440452,62.6679483 L36.5081512,74.9130983 Z"/>
      <path fill="#EAEEF1" d="M33.8443527,62.66764 C31.9709322,59.8581067 22.0941265,59.0243733 15.2152855,58.4891067 C8.33705936,57.9526067 7.09815477,60.2472233 4.81525018,62.7336233 C3.26646572,64.4202067 1.88553286,73.7867567 1.45698869,78.0713567 C1.19322191,80.7094567 2.22799929,85.40414 3.16686148,87.2936067 C4.66645866,90.3109567 6.22938445,97.8077733 6.93337739,101.463373 C6.98317951,102.54994 7.15349046,103.76354 7.35946219,105.066557 C8.187653,110.29589 11.1247484,110.224973 14.2296954,110.46424 C17.3340276,110.70844 22.7673774,111.140107 24.7391724,106.230207 C24.9506777,105.70419 25.1050028,105.209007 25.216289,104.737873 C25.7487413,103.386757 29.191236,94.76884 31.6026424,91.36299 C32.8206424,89.6412567 37.0636601,83.5029567 37.2684021,80.8599233 C38.0424869,70.8600567 35.1146141,64.5737567 33.8443527,62.66764"/>
      <path fill="#D8DEE2" d="M17.539323,47.2124317 C17.1698035,46.8368817 16.4621216,46.806665 16.0673936,47.1495317 C14.449747,48.5592317 10.792058,52.2265483 10.6383477,56.7029317 C10.4409837,62.4582817 16.1098177,67.3706483 16.1098177,67.3706483 C16.1098177,67.3706483 22.0995986,62.9528483 22.2969625,57.1974983 C22.4506728,52.721115 19.0561357,48.7540983 17.539323,47.2124317"/>
      <path fill="#EAEEF1" d="M16.2658028,61.7125467 C16.2658028,61.7125467 8.34911025,64.6898133 8.27532933,67.34888 C8.18064382,70.7670633 16.2405943,73.8695133 16.2405943,73.8695133 C16.2405943,73.8695133 24.4542551,71.42998 24.5489406,68.0117967 C24.6227216,65.35273 16.2658028,61.7125467 16.2658028,61.7125467"/>
    </g>
  </g>
</svg>
