<svg xmlns="http://www.w3.org/2000/svg" xmlns:xlink="http://www.w3.org/1999/xlink" version="1.1" x="0px" y="0px" viewBox="0 0 66 82.5" style="enable-background:new 0 0 66 66;" xml:space="preserve"><g><path d="M44.3,14c-4.3,0-7.7,3.5-7.7,7.7c0,4.3,3.5,7.7,7.7,7.7S52,26,52,21.7C52,17.5,48.5,14,44.3,14z M44.3,25.5   c-2.1,0-3.7-1.7-3.7-3.7c0-2.1,1.7-3.7,3.7-3.7s3.7,1.7,3.7,3.7C48,23.8,46.3,25.5,44.3,25.5z"/><path d="M52.9,5.7L37.5,6.2c-2.6,0.2-5.1,1.3-7,3.2L8.2,31.7c-3.3,3.3-3.3,8.6,0,11.9l14.2,14.2c1.6,1.6,3.8,2.5,5.9,2.5   c2.1,0,4.3-0.8,5.9-2.5l22.3-22.3c1.9-1.9,3-4.3,3.2-7l0.5-15.4c0.1-2-0.7-3.9-2.1-5.3C56.8,6.4,54.9,5.7,52.9,5.7z M55.8,28.2   c-0.1,1.7-0.8,3.2-2,4.4L31.4,55c-1.7,1.7-4.5,1.7-6.2,0L11,40.8c-1.7-1.7-1.7-4.5,0-6.2l22.3-22.3c1.2-1.2,2.7-1.9,4.3-2l15.4-0.5   c0.9,0,1.7,0.3,2.3,0.9s0.9,1.4,0.9,2.3L55.8,28.2z"/></g><text x="0" y="81" fill="#000000" font-size="5px" font-weight="bold" font-family="'Helvetica Neue', Helvetica, Arial-Unicode, Arial, Sans-serif">Created by Ananth</text><text x="0" y="86" fill="#000000" font-size="5px" font-weight="bold" font-family="'Helvetica Neue', Helvetica, Arial-Unicode, Arial, Sans-serif">from the Noun Project</text></svg>