<svg xmlns="http://www.w3.org/2000/svg" version="1.1" viewBox="-5.0 -10.0 110.0 115.0">
 <path d="m93.535 23.406c-0.29297-0.23438-0.67969-0.32812-1.0469-0.25l-23.211 4.9727c0.17578-0.94141 0.27734-1.8086 0.27734-2.5742 0-10.781-8.7734-19.555-19.555-19.555-10.336 0-18.816 8.0586-19.504 18.223l-23.508 5.0391c-0.57422 0.125-0.98438 0.63281-0.98438 1.2188v62.27c0 0.375 0.17188 0.73438 0.46484 0.96875 0.22266 0.17969 0.5 0.27734 0.78516 0.27734 0.085938 0 0.17578-0.007813 0.26172-0.027344l28.238-6.0508 28.238 6.0508c0.085937 0.019531 0.17578 0.027344 0.26172 0.027344 0.089844 0 0.17188-0.027344 0.25781-0.042969l0.003906 0.015625 28.5-6.1055c0.57422-0.125 0.98438-0.63281 0.98438-1.2188l-0.003906-62.27c0-0.375-0.16797-0.73438-0.46094-0.96875zm-2.0312 2.5117v17.215l-26.008 19.512v-23.547c1.3086-2.9648 2.4023-5.793 3.1211-8.2734zm-28.5 37.375-8.3867-3.3555c2.5039-4.3086 5.6367-9.9219 8.3867-15.516zm-13.004-54.797c9.4062 0 17.059 7.6523 17.059 17.059 0 6.5156-8.7227 23.391-16.891 37.012-0.085938 0.14453-0.25391 0.14453-0.33984 0-8.1641-13.621-16.891-30.496-16.891-37.012 0.003906-9.4062 7.6562-17.059 17.062-17.059zm-13.004 35.93c1.8164 3.6914 3.7969 7.3906 5.6562 10.723l-5.6562-2.2656zm-6.4727-17.656c0.33594 3.1758 1.8867 7.5742 3.9805 12.328v13.895l-26.008 14.309v-35.812zm-22.027 64.438v-21.059l26.008-14.312v29.801zm28.5-5.5703v-30.066l7.625 3.0508c1.1523 2.0078 2.207 3.793 3.0703 5.2305 0.49219 0.81641 1.3555 1.3047 2.3086 1.3047s1.8164-0.48828 2.3086-1.3086c0.32031-0.53516 0.66797-1.1133 1.0352-1.7383l9.6602 3.8672v25.23zm28.5 5.5703v-25.445l26.008-19.512v39.387zm-3.5078-65.648c0-6.6094-5.3789-11.988-11.988-11.988s-11.988 5.375-11.988 11.988c0 6.6094 5.3789 11.988 11.988 11.988s11.988-5.3789 11.988-11.988zm-21.48 0c0-5.2344 4.2578-9.4961 9.4961-9.4961 5.2344 0 9.4922 4.2578 9.4922 9.4961 0 5.2344-4.2578 9.4922-9.4922 9.4922-5.2383 0-9.4961-4.2578-9.4961-9.4922z"/>
</svg>