<svg xmlns="http://www.w3.org/2000/svg" version="1.1" viewBox="-5.0 -10.0 110.0 135.0">
 <path d="m66.176 26.754c0 0.81641-0.66406 1.4805-1.4805 1.4805-0.81641 0-1.4805-0.66406-1.4805-1.4805s0.66406-1.4805 1.4805-1.4805c0.81641 0 1.4805 0.66406 1.4805 1.4805zm8.7227-1.4805c-0.81641 0-1.4805 0.66406-1.4805 1.4805s0.66406 1.4805 1.4805 1.4805c0.81641 0 1.4805-0.66406 1.4805-1.4805s-0.66406-1.4805-1.4805-1.4805zm15.086-2.7031c0.054687 0.30078-0.03125 0.60938-0.23047 0.83594-2.6367 3.0078-5.6953 4.4922-9.1992 4.3477l-2.3242 9.082c-0.003907 0.015624-0.007813 0.027343-0.011719 0.042968 3.9375 4.2812 4.1367 8.6523 0.58984 12.68 1.0938 2.2109 1.2773 4.4922 0.50781 6.4922-0.76953 2-2.4727 3.6094-4.7188 4.4961-0.23438 2.418-1.3359 4.418-3.1406 5.6797-0.51172 0.35547-1.0742 0.64063-1.6602 0.85938l-1.2695 13.031 1.8125 3.1211c0.17969 0.30859 0.17969 0.69141 0 1-0.17578 0.30859-0.50781 0.5-0.86719 0.5h-5.375c-0.11328 0-0.22266-0.03125-0.32422-0.066406-0.10547 0.039063-0.21875 0.066406-0.33594 0.066406h-7.5703c-0.52734 0-0.96094-0.40625-0.99609-0.93359l-0.85547-12.629c-1.2969-0.80078-2.4688-2.082-3.1992-3.9375-1.1953 0.78125-2.4727 1.1719-3.8242 1.1719-1.4375 0-2.957-0.44141-4.5586-1.3203-1.3828 0.60547-2.7695 0.89062-4.0781 0.88672-1.4141 2.2305-2.9805 4-4.7734 5.3477l1.0781 6.668 1.8828 3.2422c0.17969 0.30859 0.17969 0.69141 0 1-0.17578 0.30859-0.50781 0.5-0.86719 0.5h-5.375c-0.11328 0-0.22266-0.03125-0.32422-0.066406-0.10547 0.039062-0.21875 0.066406-0.33594 0.066406h-7.5703c-0.47656 0-0.89062-0.33984-0.98047-0.80859l-2.6445-13.539c-0.41016-0.30469-0.77734-0.65625-1.0898-1.0547-0.90625-1.1562-2.0664-3.6172-0.13672-7.4688l-0.31641-0.31641c-1.2461-1.2461-1.9648-2.8711-2.0625-4.6133-2.5977-0.25-4.3672-2.0703-4.7539-4.9805-0.625-4.7031 2.3984-11.078 7.4102-12.91 1.4453-3.1875 3.3633-5.2539 5.7031-6.1406 2.207-0.83594 4.7969-0.62891 7.6953 0.61719 3.6836-3.0742 7.7773-3.082 11.668-0.039062 1.668-1.3828 3.7305-2.1133 5.8086-2.0781 2.0156 0.035156 3.9258 0.76172 5.5078 2.0508 1.0703-1.9453 2.9609-3.1328 5.7109-3.5742l-0.54688-2.1328c-3.4883 0.13672-6.5625-1.3398-9.1992-4.3477-0.19922-0.23047-0.28516-0.53906-0.23047-0.83594 0.054688-0.30078 0.24219-0.55859 0.51172-0.70312 3.4219-1.8359 6.8477-2.7617 10.195-2.7617h0.011719c1.0469-1.8359 2.5547-3.1094 4.3008-3.6133 1.6875-0.48438 3.4609-0.25 5.1641 0.67969 1.7031-0.92969 3.4805-1.168 5.168-0.67969 1.7461 0.50391 3.2539 1.7773 4.3008 3.6133h0.011719c3.3477 0 6.7734 0.92578 10.195 2.7617 0.26953 0.14453 0.45703 0.40234 0.51172 0.70312zm-62.082 60.184-1.1016-1.8984c-0.0625-0.10938-0.10547-0.23047-0.125-0.35547l-1.293-8.8906c-0.72656 0.15234-1.4492 0.25391-2.1484 0.25391-0.89062 0-1.7461-0.12109-2.5352-0.35156l2.1953 11.246h5.0078zm8.25-15.07c-1.0859-0.31641-2.0742-0.87891-2.9062-1.668-1.4805 2.3164-3.5 4.0469-5.9258 5.0195l1.3086 8.9844 1.5977 2.75c0.027344-0.003906 0.046876-0.015625 0.074219-0.015625h3.6367l-1.1016-1.8984c-0.058594-0.10547-0.10156-0.22266-0.12109-0.33984l-1.207-7.4609c-0.0625-0.37891 0.10156-0.76172 0.41797-0.98047 1.5742-1.0898 2.9609-2.5469 4.2305-4.3867zm25.547 15.07-1.1016-1.8984c-0.089844-0.16016-0.13672-0.33984-0.13281-0.52344l0.1875-8.6523c-0.89844 0.375-1.8594 0.59375-2.8555 0.59375-0.32031 0-0.64453-0.019532-0.96875-0.0625-0.24609-0.03125-0.49609-0.085938-0.75-0.14844l0.72656 10.695h4.8984zm4.8008-2.4961 1.2383-12.684c-0.91797 0.089843-1.8633 0.042969-2.8047-0.16406-0.52344 1.2109-1.3125 2.2344-2.2578 3.0352l-0.20703 9.6523 1.5547 2.6758c0.027343-0.003907 0.046874-0.015626 0.074218-0.015626h3.6367l-1.1016-1.8984c-0.10547-0.17969-0.14844-0.39062-0.12891-0.59766zm10.875-41.281c-0.51562 0.87891-1.2148 1.6406-2.207 2.418-1.8438 1.4414-4.9531 1.4531-5.3711 1.4492h-0.082031c-0.64453 0-3.5352-0.078125-5.2891-1.4492-1.707-1.332-2.5625-2.6094-3.0625-4.5508l-1.2812-5c-4.0859 0.58203-5.6055 2.8672-5.1992 7.7227 0.046876 0.55078-0.36328 1.0312-0.91406 1.0781-0.027344 0.003907-0.054688 0.003907-0.082031 0.003907-0.51562 0-0.95312-0.39453-0.99609-0.91797-0.13672-1.6211-0.054687-3.0352 0.22656-4.2578-1.3242-1.293-3.0078-2.0273-4.7891-2.0547h-0.11328c-1.8164 0-3.5586 0.74609-4.9219 2.1094-0.37109 0.37109-0.97266 0.39062-1.3672 0.042968-3.4961-3.082-6.918-3.125-10.184-0.125-0.29688 0.27734-0.73828 0.34375-1.1016 0.16797-2.6328-1.2422-4.8984-1.5195-6.7344-0.82422-1.9102 0.72656-3.5117 2.5664-4.7539 5.4727-0.11328 0.26953-0.34375 0.47656-0.62891 0.5625-4.2812 1.3008-6.9844 6.918-6.457 10.883 0.17969 1.3516 0.82422 2.9375 2.7539 3.2266v-5.7422c0-0.55078 0.44531-1 1-1 0.55078 0 1 0.44531 1 1v7.3438c0 1.3672 0.53125 2.6484 1.4961 3.6133l0.84375 0.84375c0.32031 0.31641 0.38281 0.8125 0.16016 1.2031-1.3672 2.3906-1.5039 4.4961-0.38672 5.9219 0.18359 0.23437 0.40234 0.4375 0.64062 0.625 0.23047 0.058593 0.4375 0.19531 0.57422 0.39453 1.4102 0.79297 3.4102 0.96094 5.4336 0.38672 4.5547-1.2969 7.6719-5.6562 8.332-11.664 0.0625-0.54688 0.55078-0.94141 1.1016-0.88281 0.55078 0.058594 0.94531 0.55469 0.88281 1.1016-0.25 2.2461-0.8125 4.2891-1.6445 6.0781 1.7734 2.0547 4.7148 2.4258 7.7812 0.92188 0.30469-0.14844 0.66016-0.13281 0.95312 0.039063 2.8555 1.7031 5.1641 1.7148 7.2461 0.058593-0.10547-0.59766-0.17578-1.2305-0.19922-1.9102-0.019531-0.55078 0.41406-1.0117 0.96484-1.0312 0.51562-0.054687 1.0117 0.41406 1.0312 0.96484 0.15234 4.707 2.707 6.7109 5.0469 7.0195 2.3008 0.29688 5.2422-0.91797 6.2734-4.3164 0.078126-0.25781 0.25781-0.47266 0.49609-0.59766 0.23828-0.12109 0.51562-0.14844 0.77344-0.058594 2.0117 0.67188 4.1328 0.42578 5.6758-0.65234 1.4648-1.0234 2.2695-2.6797 2.332-4.793 0.011719-0.42578 0.29297-0.79688 0.69531-0.92578 2.0156-0.64062 3.4766-1.8984 4.1133-3.543 0.63281-1.6445 0.38281-3.5195-0.72266-5.4258-0.22656-0.38672-0.16406-0.87891 0.14844-1.1992 3.0664-3.1562 3.2305-6.3477 0.50391-9.7383zm9.9688-15.941c-2.9258-1.375-5.8438-2.0234-8.6406-1.918-0.42969 0.027343-0.76172-0.20313-0.93359-0.55859-0.79688-1.6289-1.9883-2.7461-3.3633-3.1445-1.2695-0.36719-2.6406-0.12109-3.9727 0.70313-0.15625 0.097656-0.33984 0.14844-0.52734 0.14844h-0.22266c-0.18359 0-0.36719-0.050781-0.52734-0.14844-1.332-0.82422-2.707-1.0664-3.9727-0.70313-1.3711 0.39453-2.5664 1.5117-3.3633 3.1445-0.17187 0.35547-0.52734 0.58984-0.93359 0.55859-2.8086-0.097657-5.7148 0.54297-8.6406 1.918 2.2031 2.0977 4.6445 2.9727 7.4453 2.668 0.48828-0.058594 0.95312 0.26562 1.0742 0.74609l2.5312 9.8906c0.32812 1.2891 0.82031 2.2734 2.3555 3.4727 0.78906 0.61719 2.1406 0.87891 3.1367 0.97656v-3.043l-2.1328-1.043c-0.49609-0.24219-0.69922-0.83984-0.45703-1.3359 0.24219-0.49609 0.83984-0.70313 1.3359-0.45703l2.2539 1.1016 2.2539-1.1016c0.49609-0.24219 1.0938-0.035156 1.3359 0.45703 0.24219 0.49609 0.035156 1.0938-0.45703 1.3359l-2.1328 1.043v3.043c0.99609-0.097656 2.3516-0.35937 3.1406-0.97656 1.5312-1.1992 2.0234-2.1797 2.3555-3.4727l2.5312-9.8906c0.125-0.48047 0.58984-0.80469 1.0742-0.74609 2.7969 0.30469 5.2422-0.57031 7.4453-2.668z"/>
<text x="0.0" y="117.5" font-size="5.0" font-weight="bold" font-family="Arbeit Regular, Helvetica, Arial-Unicode, Arial, Sans-serif" fill="#000000">Created by Lewen Design</text><text x="0.0" y="122.5" font-size="5.0" font-weight="bold" font-family="Arbeit Regular, Helvetica, Arial-Unicode, Arial, Sans-serif" fill="#000000">from Noun Project</text></svg>