<svg xmlns="http://www.w3.org/2000/svg" xmlns:xlink="http://www.w3.org/1999/xlink" version="1.1" x="0px" y="0px" viewBox="423 -52 75 75" enable-background="new 423 -52 75 75" xml:space="preserve">
<g><path d="M434.084-16.492c0.039,0,0.074-0.01,0.109-0.022h10.667c0.052,0.387,0.163,0.788,0.361,1.203   c-0.646,0.612-1.36,1.704-0.954,2.889c-0.121,0.148-0.273,0.359-0.421,0.612h-6.986c-0.276,0-0.5,0.224-0.5,0.5s0.224,0.5,0.5,0.5   h6.567c-0.095,0.353-0.15,0.741-0.116,1.16c0.092,1.148,0.775,2.202,2.033,3.133c0.008,1.204,0.525,3.135,2.47,3.597   c0.263,0.652,1.02,2.236,2.38,2.811c0.625,0.264,1.283,0.285,1.968,0.063c0.503,1.15,1.695,2.663,3.719,2.663   c0.016,0,0.031,0,0.048,0c0.238,0.582,0.76,1.585,1.57,1.795c0.042,0.011,0.084,0.016,0.125,0.016c0.051,0,0.092-0.032,0.14-0.047   c0.048,0.015,0.089,0.047,0.14,0.047c0.041,0,0.083-0.005,0.125-0.016c0.812-0.209,1.332-1.213,1.57-1.795c0.017,0,0.032,0,0.048,0   c2.023,0,3.216-1.513,3.719-2.663c0.686,0.222,1.343,0.201,1.968-0.063c1.36-0.575,2.118-2.159,2.38-2.811   c1.945-0.462,2.462-2.394,2.47-3.597c1.258-0.932,1.941-1.985,2.034-3.133c0.104-1.288-0.579-2.312-0.957-2.772   c0.406-1.185-0.308-2.276-0.954-2.889c0.015-0.032,0.025-0.063,0.039-0.094h6.25c0.276,0,0.5-0.224,0.5-0.5s-0.224-0.5-0.5-0.5   h-5.946c0.322-1.952-1.018-3.522-2.14-4.32c0.138-0.378,0.158-0.735,0.084-1.079h8.002c0.139,0,0.271-0.058,0.366-0.16   c0.095-0.102,0.143-0.239,0.133-0.377c-0.231-3.099-4.939-5.527-10.718-5.527H449.15c-0.194,0-0.384,0.01-0.576,0.015   c-0.013,0.001-0.025-0.001-0.037,0.001c-5.11,0.154-9.26,2.204-9.995,4.895l-0.18,0.038c-2.154,0.452-3.309,1.434-3.929,2.392   v-1.698c2.25-0.102,3.745-0.723,4.431-1.858c0.751-1.246,0.25-2.645,0.092-3.019c0.883-0.402,2.012-0.763,2.012-0.763   c-1.537,0.019-2.632,0.327-3.268,0.571c-1.729,0.5-2.714,1.367-3.266,2.22v-1.698c2.25-0.102,3.745-0.723,4.431-1.858   c0.757-1.256,0.243-2.665,0.089-3.024c0.864-0.382,1.901-0.715,1.901-0.715c-1.436,0.018-2.479,0.287-3.13,0.521   c-1.744,0.499-2.736,1.369-3.291,2.227v-1.698c2.25-0.102,3.745-0.723,4.431-1.858c0.751-1.246,0.25-2.645,0.092-3.019   c0.883-0.402,2.012-0.763,2.012-0.763c-1.537,0.019-2.632,0.327-3.268,0.571c-1.729,0.5-2.714,1.367-3.266,2.22v-1.698   c2.25-0.102,3.745-0.723,4.431-1.858c0.808-1.339,0.174-2.839,0.07-3.069c0.884-0.404,2.023-0.768,2.023-0.768   c-2.174,0.027-3.472,0.631-3.813,0.811c-0.396,0.147-0.757,0.31-1.066,0.493c0.477-2.686-1.003-3.892-1.474-4.201   c-0.09-0.937-0.362-1.425-0.362-1.425c-0.217,0.531-0.297,1.025-0.324,1.408c-1.645,1.047-1.866,2.808-1.586,4.363   c-0.383-0.251-0.836-0.477-1.368-0.668c-0.411-0.208-1.681-0.755-3.753-0.78c0,0,1.155,0.369,2.041,0.776   c-0.115,0.254-0.726,1.736,0.073,3.061c0.683,1.131,2.171,1.752,4.409,1.857v1.664c-0.556-0.842-1.54-1.692-3.245-2.185   c-0.635-0.243-1.731-0.552-3.268-0.571c0,0,1.129,0.361,2.012,0.763c-0.158,0.374-0.659,1.773,0.092,3.019   c0.683,1.131,2.171,1.752,4.409,1.857v1.664c-0.625-0.947-1.78-1.911-3.907-2.357l-0.381-0.08l-0.003,0.006   c-0.61-0.149-1.39-0.271-2.335-0.282c0,0,1.202,0.383,2.095,0.8c-0.18,0.453-0.589,1.758,0.123,2.939   c0.683,1.131,2.171,1.752,4.409,1.857v1.664c-0.556-0.842-1.54-1.692-3.245-2.185c-0.635-0.243-1.731-0.552-3.268-0.571   c0,0,1.129,0.361,2.012,0.763c-0.158,0.374-0.659,1.773,0.092,3.019c0.683,1.131,2.171,1.752,4.409,1.857v1.664   c-0.556-0.842-1.54-1.692-3.245-2.185c-0.635-0.243-1.731-0.552-3.268-0.571c0,0,1.129,0.361,2.012,0.763   c-0.158,0.374-0.659,1.773,0.092,3.019c0.683,1.131,2.171,1.752,4.409,1.857v0.165h-3.099c-0.276,0-0.5,0.224-0.5,0.5   s0.224,0.5,0.5,0.5h3.34C434.01-16.503,434.045-16.492,434.084-16.492z M467.438-20.781c-0.13,0.236-0.048,0.533,0.185,0.671   c0.132,0.078,3.211,1.947,1.622,4.669c-0.129,0.221-0.07,0.504,0.136,0.655c0.015,0.011,1.448,1.079,0.852,2.23   c-0.101,0.195-0.062,0.435,0.096,0.589c0.011,0.01,0.997,0.991,0.892,2.245c-0.075,0.898-0.69,1.754-1.828,2.543   c-0.145,0.1-0.226,0.269-0.214,0.443c0.007,0.105,0.146,2.577-1.908,2.884c-0.187,0.028-0.342,0.16-0.401,0.339   c-0.006,0.019-0.652,1.948-1.926,2.483c-0.506,0.213-1.043,0.173-1.646-0.123c-0.133-0.065-0.288-0.069-0.423-0.009   s-0.237,0.176-0.278,0.318c-0.032,0.11-0.818,2.706-3.284,2.441c-0.246-0.021-0.455,0.119-0.527,0.343   c-0.185,0.568-0.638,1.407-1.005,1.502c-0.006,0.001-0.01,0.006-0.015,0.007c-0.006-0.002-0.009-0.006-0.015-0.007   c-0.381-0.099-0.825-0.955-1.005-1.503c-0.073-0.223-0.287-0.363-0.527-0.342c-2.45,0.254-3.253-2.333-3.285-2.443   c-0.041-0.141-0.144-0.257-0.278-0.317c-0.137-0.059-0.29-0.057-0.422,0.009c-0.601,0.296-1.139,0.336-1.646,0.123   c-1.272-0.535-1.919-2.464-1.925-2.483c-0.06-0.18-0.215-0.311-0.401-0.339c-2.042-0.305-1.916-2.78-1.909-2.885   c0.011-0.174-0.07-0.343-0.214-0.442c-1.138-0.79-1.753-1.645-1.828-2.543c-0.105-1.254,0.882-2.235,0.892-2.245   c0.157-0.154,0.196-0.394,0.096-0.589c-0.592-1.142,0.793-2.187,0.853-2.231c0.204-0.152,0.264-0.434,0.135-0.654   c-1.589-2.722,1.491-4.591,1.623-4.669c0.232-0.138,0.314-0.435,0.185-0.671c-0.2-0.363-0.221-0.694-0.081-1.022h6.134   c-0.402,0.382-0.937,0.619-1.625,0.679c-0.251,0.022-0.447,0.229-0.456,0.481c-0.033,0.999-0.421,3.692-1.792,4.16   c-0.182,0.062-0.313,0.223-0.335,0.413c-0.023,0.191,0.064,0.378,0.227,0.481c0.067,0.043,1.538,1.018,0.614,2.995   c-0.305-0.243-0.62-0.44-0.948-0.575c-1.108-0.455-1.913-0.102-2.002-0.061c-0.246,0.117-0.35,0.408-0.237,0.656   c0.112,0.25,0.41,0.358,0.657,0.251c0.021-0.009,0.519-0.216,1.238,0.093c0.8,0.344,1.979,1.376,3.061,4.339   c0.074,0.203,0.266,0.329,0.47,0.329c0.057,0,0.115-0.01,0.172-0.03c0.259-0.095,0.393-0.382,0.298-0.641   c-0.555-1.521-1.194-2.701-1.905-3.557c0.851-0.633,3.906-2.721,5.786-1.584c0.01,0.006,0.022,0.006,0.033,0.012   c0.029,0.015,0.059,0.023,0.091,0.032c0.032,0.009,0.062,0.018,0.094,0.021c0.03,0.003,0.059-0.001,0.09-0.004   c0.035-0.004,0.068-0.007,0.102-0.018c0.01-0.003,0.021-0.002,0.032-0.006c3.194-1.252,5.501,1.07,5.944,1.563   c-0.705,0.855-1.34,2.029-1.891,3.541c-0.095,0.259,0.039,0.546,0.298,0.641c0.057,0.021,0.115,0.03,0.172,0.03   c0.204,0,0.396-0.125,0.47-0.329c1.082-2.962,2.261-3.995,3.061-4.339c0.711-0.306,1.205-0.108,1.237-0.094   c0.248,0.113,0.542,0.005,0.659-0.242c0.118-0.25,0.011-0.547-0.238-0.666c-0.089-0.042-0.893-0.395-2.002,0.061   c-0.352,0.145-0.691,0.355-1.018,0.626c-0.947-1.952,0.423-2.937,0.588-3.046c0.162-0.104,0.25-0.291,0.227-0.481   c-0.022-0.19-0.153-0.351-0.335-0.413c-1.367-0.466-1.757-3.161-1.792-4.16c-0.009-0.252-0.205-0.459-0.456-0.481   c-0.687-0.06-1.22-0.298-1.623-0.679h6.439C467.681-21.539,467.692-21.245,467.438-20.781z M459.851-21.804   c0.499,0.852,1.307,1.425,2.363,1.618c0.089,0.954,0.434,3.244,1.742,4.267c-0.468,0.529-0.868,1.335-0.781,2.363   c-0.852-0.573-2.054-1.117-3.488-1.13l-0.598-1.754c-0.09-0.262-0.378-0.403-0.635-0.312c-0.262,0.089-0.401,0.373-0.313,0.635   l0.518,1.519c-0.328,0.057-0.663,0.142-1.009,0.265c-1.831-0.908-4.164,0.139-5.608,1.021c0.179-1.144-0.248-2.036-0.752-2.606   c1.309-1.023,1.653-3.313,1.742-4.267c1.056-0.194,1.868-0.766,2.366-1.618H459.851z M446.943-26.736   c-0.737,0.664-1.48,1.571-1.48,2.541c0,0.276,0.224,0.5,0.5,0.5s0.5-0.224,0.5-0.5c0-1.005,1.602-2.226,2.297-2.665   c0.13-0.003,0.259-0.009,0.39-0.009h17.226c4.8,0,8.902,1.779,9.616,4.064h-36.458C440.135-24.729,443.143-26.289,446.943-26.736z    M438.147-21.841c0.124,0.432,0.238,1.167-0.144,1.794c-0.464,0.763-1.583,1.227-3.25,1.353   C434.886-19.517,435.489-21.142,438.147-21.841z M438.147-26.389c0.124,0.432,0.238,1.167-0.144,1.794   c-0.464,0.763-1.583,1.227-3.25,1.353C434.886-24.064,435.489-25.689,438.147-26.389z M438.147-30.936   c0.124,0.432,0.238,1.167-0.144,1.794c-0.464,0.763-1.583,1.227-3.25,1.353C434.886-28.612,435.489-30.236,438.147-30.936z    M438.147-35.483c0.124,0.432,0.238,1.167-0.144,1.794c-0.464,0.763-1.583,1.227-3.25,1.353   C434.886-33.159,435.489-34.784,438.147-35.483z M438.004-38.236c-0.464,0.763-1.583,1.227-3.25,1.353   c0.132-0.823,0.735-2.448,3.394-3.147C438.271-39.599,438.386-38.863,438.004-38.236z M434.246-43.493   c0.497,0.401,1.533,1.634,0.459,4.405c-0.272,0.339-0.468,0.682-0.611,1.008c-0.031-0.072-0.063-0.144-0.099-0.217l0.012-0.006   C433.986-38.34,432.112-41.856,434.246-43.493z M430.186-38.236c-0.382-0.627-0.268-1.362-0.144-1.794   c2.658,0.7,3.262,2.324,3.394,3.147C431.769-37.01,430.649-37.474,430.186-38.236z M430.186-33.689   c-0.382-0.627-0.268-1.362-0.144-1.794c2.658,0.7,3.262,2.324,3.394,3.147C431.769-32.462,430.649-32.926,430.186-33.689z    M430.186-29.142c-0.382-0.627-0.268-1.362-0.144-1.794c2.658,0.7,3.262,2.324,3.394,3.147   C431.769-27.915,430.649-28.379,430.186-29.142z M430.186-24.594c-0.382-0.627-0.268-1.362-0.144-1.794   c2.658,0.7,3.262,2.324,3.394,3.147C431.769-23.368,430.649-23.832,430.186-24.594z M430.186-20.047   c-0.382-0.627-0.268-1.362-0.144-1.794c2.658,0.7,3.262,2.324,3.394,3.147C431.769-18.82,430.649-19.284,430.186-20.047z    M434.434-17.678c2.25-0.102,3.745-0.723,4.431-1.858c0.482-0.8,0.445-1.654,0.317-2.268h7.785   c-0.075,0.353-0.063,0.713,0.058,1.075c-0.902,0.64-1.95,1.779-2.162,3.215h-10.429V-17.678z"/><path d="M448.099-32.488h19.33c0.136,0,0.266-0.055,0.36-0.153c0.094-0.098,0.145-0.23,0.14-0.366   c-0.12-3.109-2.644-5.545-5.745-5.545h-8.841c-3.103,0-5.625,2.436-5.744,5.545c-0.005,0.136,0.046,0.268,0.14,0.366   C447.833-32.543,447.963-32.488,448.099-32.488z M453.343-37.552h8.841c2.387,0,4.359,1.747,4.697,4.064h-15.018   c0.293-0.662,0.863-1.644,1.77-1.961c0.261-0.091,0.398-0.376,0.307-0.637c-0.09-0.26-0.376-0.397-0.637-0.307   c-1.494,0.522-2.25,2.172-2.521,2.905h-2.136C448.983-35.805,450.956-37.552,453.343-37.552z"/><path d="M448.099-28.349h19.33c0.276,0,0.5-0.224,0.5-0.5v-2.51c0-0.276-0.224-0.5-0.5-0.5h-19.33c-0.276,0-0.5,0.224-0.5,0.5v2.51   C447.599-28.573,447.822-28.349,448.099-28.349z M448.599-30.859h18.33v1.51h-18.33V-30.859z"/><path d="M457.764-11.79c-0.35-0.033-2.135-0.158-3.439,0.963c-0.186,0.16-0.229,0.431-0.101,0.64   c0.046,0.076,1.162,1.865,3.338,1.865c0.076,0,0.153-0.002,0.173-0.007c0.078,0.005,0.155,0.007,0.231,0.007   c2.175,0,3.292-1.789,3.338-1.865c0.128-0.209,0.085-0.48-0.101-0.64C459.898-11.947,458.114-11.824,457.764-11.79z M457.966-9.322   c-0.057,0-0.114-0.001-0.231-0.005c-1.175,0.069-1.978-0.583-2.371-1.016c1.033-0.602,2.294-0.454,2.338-0.448   c0.041,0.005,0.084,0.005,0.125,0c0.044-0.005,1.305-0.152,2.338,0.448C459.789-9.931,459.051-9.322,457.966-9.322z"/><path d="M469.115,3.428c-1.113,0-2.02,1.008-2.02,2.247s0.906,2.247,2.02,2.247s2.02-1.008,2.02-2.247S470.229,3.428,469.115,3.428   z M469.115,6.922c-0.563,0-1.02-0.56-1.02-1.247s0.457-1.247,1.02-1.247s1.02,0.56,1.02,1.247S469.678,6.922,469.115,6.922z"/><path d="M492.061-41.089c-0.56-0.073-1.061,0.232-1.12,0.682l-1.56,11.993l-3.482-0.453l1.56-11.993   c0.058-0.449-0.348-0.873-0.908-0.945c-0.56-0.073-1.061,0.232-1.12,0.682l-1.56,11.993l-3.482-0.453l1.56-11.993   c0.058-0.449-0.348-0.873-0.908-0.945c-0.56-0.073-1.061,0.232-1.12,0.682l-1.56,11.993l-3.482-0.453l1.56-11.993   c0.058-0.449-0.348-0.873-0.908-0.945c-0.56-0.073-1.061,0.232-1.12,0.682l-1.712,13.169c-0.037,0.281,0.122,0.541,0.373,0.722   c0.149,0.132,0.325,0.235,0.537,0.263l6.718,0.874l-0.405,3.113l0.517,0.067l-1.853,14.252h-2.305c-0.276,0-0.5,0.224-0.5,0.5   s0.224,0.5,0.5,0.5h2.175l-1.007,7.744c-1.506-1.701-3.414-3.156-5.844-4.143c-0.018-0.007-0.037-0.005-0.055-0.01   c-0.031-0.009-0.061-0.014-0.094-0.017c-0.035-0.003-0.067-0.004-0.102,0c-0.014,0.002-0.028-0.003-0.042,0   c-0.023,0.005-0.041,0.019-0.063,0.027c-0.019,0.007-0.039,0.006-0.057,0.015c-0.01,0.005-0.017,0.016-0.027,0.021   c-0.035,0.021-0.064,0.046-0.093,0.074c-0.02,0.019-0.04,0.036-0.057,0.059c-0.025,0.034-0.041,0.073-0.057,0.112   c-0.007,0.019-0.022,0.034-0.027,0.054c-0.02,0.077-2.141,7.677-13.167,10.732c-10.991-3.045-13.148-10.656-13.168-10.733   c-0.005-0.02-0.02-0.035-0.028-0.054c-0.016-0.04-0.032-0.078-0.057-0.112c-0.016-0.021-0.035-0.037-0.054-0.056   c-0.029-0.029-0.059-0.055-0.096-0.077c-0.01-0.006-0.016-0.016-0.026-0.021c-0.017-0.008-0.036-0.008-0.054-0.014   c-0.022-0.008-0.041-0.023-0.065-0.028c-0.015-0.003-0.03,0.002-0.045,0c-0.032-0.004-0.063-0.003-0.096,0   c-0.035,0.003-0.067,0.008-0.1,0.017c-0.017,0.005-0.035,0.002-0.051,0.009c-12.544,5.096-11.321,22.583-11.307,22.759   c0.02,0.26,0.237,0.461,0.498,0.461h9.372c0.273,0,0.496-0.22,0.5-0.492c0.071-4.722,0.59-6.763,0.97-7.63l1.519,7.719   c0.046,0.234,0.251,0.403,0.49,0.403h11.798h11.798c0.239,0,0.444-0.169,0.49-0.403l1.525-7.759   c0.391,0.84,0.928,2.865,0.962,7.666c0.002,0.274,0.226,0.496,0.5,0.496h9.372c0.261,0,0.479-0.201,0.498-0.461   c0.008-0.095,0.363-5.213-1.269-10.712h7.583c0.276,0,0.5-0.224,0.5-0.5s-0.224-0.5-0.5-0.5h-7.902   c-0.524-1.542-1.213-3.09-2.119-4.546l1.314-10.103h8.707c0.276,0,0.5-0.224,0.5-0.5s-0.224-0.5-0.5-0.5h-8.577l0.713-5.48   c0.092,0.104,0.222,0.173,0.371,0.173h9.557c0.276,0,0.5-0.224,0.5-0.5s-0.224-0.5-0.5-0.5h-9.557   c-0.104,0-0.196,0.039-0.276,0.094l1.011-7.775l0.538,0.07l0.405-3.113l6.718,0.874c0.212,0.028,0.409-0.028,0.587-0.117   c0.289-0.111,0.508-0.322,0.545-0.603l0.021-0.161c0,0,0,0,0,0s0,0,0,0l1.691-13.007C493.028-40.593,492.621-41.017,492.061-41.089   z M458.855,10.08l2.617-2.28c0.209-0.181,0.23-0.497,0.049-0.706c-0.181-0.207-0.497-0.23-0.705-0.048l-3.483,3.034h-2.466   l-0.902-1.206c-0.167-0.222-0.48-0.267-0.7-0.101c-0.221,0.166-0.266,0.479-0.101,0.7l0.454,0.607h-2.237   c-1.69-1.792-2.049-5.623-2.122-7.485c2.025,1.541,4.735,2.995,8.373,3.983c0.01,0.003,0.019,0,0.029,0.002   c0.034,0.007,0.067,0.007,0.103,0.007c0.035,0,0.069,0,0.103-0.007c0.009-0.002,0.018,0.001,0.028-0.002   c3.638-0.989,6.347-2.442,8.372-3.983c-0.073,1.862-0.432,5.693-2.122,7.485H458.855z M441.997,16.724h-2.536   c0.094-1.541,0.411-6.12,0.98-8.083c0.077-0.265-0.076-0.542-0.341-0.619c-0.268-0.079-0.543,0.076-0.62,0.341   c-0.613,2.113-0.933,6.85-1.021,8.362h-4.867c-0.093-2.669-0.04-16.149,9.853-20.905c-0.203,1.183-0.506,3.329-0.567,5.711   c-0.517,0.544-2.26,2.489-2.693,4.412c-0.062,0.269,0.107,0.537,0.377,0.598c0.037,0.008,0.074,0.012,0.11,0.012   c0.229,0,0.436-0.158,0.487-0.39c0.253-1.121,1.067-2.296,1.713-3.097c0.043,1.783,0.262,3.604,0.78,5.202   C442.973,8.883,442.128,10.846,441.997,16.724z M469.15,16.724h-9.694l-11.22-3.205c-0.269-0.075-0.543,0.078-0.618,0.344   c-0.076,0.266,0.078,0.542,0.343,0.618l7.854,2.243h-9.438l-1.637-8.319c-0.003-0.014-0.011-0.025-0.015-0.039   c-0.003-0.012-0.001-0.024-0.006-0.036c-1.322-3.613-0.805-8.87-0.41-11.547c0.643,1.293,1.834,3.149,3.931,4.984   c-0.002,0.538,0.022,1.872,0.246,3.417c-0.203-1.002-1.006-1.754-1.967-1.754c-1.114,0-2.021,1.008-2.021,2.247   s0.906,2.247,2.021,2.247c1.113,0,2.02-1.008,2.02-2.247c0-0.11-0.015-0.216-0.029-0.323c0.248,1.617,0.727,3.415,1.622,4.736   h-1.39c-0.276,0-0.5,0.224-0.5,0.5s0.224,0.5,0.5,0.5h17.536c0.276,0,0.5-0.224,0.5-0.5s-0.224-0.5-0.5-0.5h-0.882   c1.789-2.642,1.894-7.204,1.89-8.323c2.097-1.835,3.288-3.692,3.931-4.985c0.396,2.677,0.914,7.932-0.41,11.548   c-0.004,0.012-0.002,0.024-0.006,0.036c-0.004,0.014-0.012,0.025-0.015,0.039L469.15,16.724z M447.539,5.675   c0,0.688-0.457,1.247-1.02,1.247s-1.021-0.56-1.021-1.247s0.458-1.247,1.021-1.247S447.539,4.988,447.539,5.675z M471.878,8.253   c0.442-1.371,0.664-2.904,0.743-4.44c0.735,0.723,1.754,1.952,1.917,3.34c0.03,0.254,0.246,0.442,0.496,0.442   c0.02,0,0.039-0.001,0.06-0.003c0.273-0.032,0.47-0.28,0.438-0.555c-0.262-2.228-2.222-4.005-2.873-4.538   c0.013-2.76-0.347-5.339-0.577-6.681c2.168,1.042,3.865,2.5,5.189,4.175l-2.176,16.73h-1.562   C473.446,10.806,472.578,8.856,471.878,8.253z M481.935,16.724h-4.777l1.832-14.091C481.993,8.261,481.997,14.931,481.935,16.724z"/><path d="M438.526-3.033c0-0.276-0.224-0.5-0.5-0.5h-5.863c-0.276,0-0.5,0.224-0.5,0.5s0.224,0.5,0.5,0.5h5.863   C438.303-2.533,438.526-2.757,438.526-3.033z"/><path d="M491.452-3.533h-8.614c-0.276,0-0.5,0.224-0.5,0.5s0.224,0.5,0.5,0.5h8.614c0.276,0,0.5-0.224,0.5-0.5   S491.729-3.533,491.452-3.533z"/></g>
</svg>